<?xml version="1.0" standalone="no"?>
<!DOCTYPE svg PUBLIC "-//W3C//DTD SVG 20010904//EN"
 "http://www.w3.org/TR/2001/REC-SVG-20010904/DTD/svg10.dtd">
<svg version="1.0" xmlns="http://www.w3.org/2000/svg"
 width="293.000000pt" height="291.000000pt" viewBox="0 0 293.000000 291.000000"
 preserveAspectRatio="xMidYMid meet">

<g transform="translate(0.000000,291.000000) scale(0.100000,-0.100000)"
fill="#000000" stroke="none">
<path d="M1490 2570 c0 -5 5 -10 10 -10 6 0 10 5 10 10 0 6 -4 10 -10 10 -5 0
-10 -4 -10 -10z"/>
<path d="M1529 2489 c-15 -15 -15 -18 1 -32 17 -14 20 -14 33 1 13 15 13 19
-2 33 -15 14 -17 14 -32 -2z m31 -13 c0 -3 -4 -8 -10 -11 -5 -3 -10 -1 -10 4
0 6 5 11 10 11 6 0 10 -2 10 -4z"/>
<path d="M1622 2406 c-6 -14 -18 -26 -27 -26 -8 0 -15 -4 -15 -10 0 -5 7 -10
15 -10 8 0 21 -12 29 -27 l14 -28 11 28 c6 15 17 27 26 27 8 0 15 5 15 10 0 6
-7 10 -15 10 -8 0 -20 12 -28 26 l-13 25 -12 -25z m26 -49 c-10 -12 -15 -12
-26 -1 -11 11 -11 16 0 27 10 12 15 12 26 1 11 -11 11 -16 0 -27z"/>
<path d="M1460 2395 c0 -8 7 -15 15 -15 8 0 15 7 15 15 0 8 -7 15 -15 15 -8 0
-15 -7 -15 -15z"/>
<path d="M1540 2329 c0 -5 5 -7 10 -4 6 3 10 8 10 11 0 2 -4 4 -10 4 -5 0 -10
-5 -10 -11z"/>
<path d="M1391 2239 l-22 -81 22 -66 c28 -89 45 -115 69 -107 10 3 21 1 25 -4
4 -7 -1 -8 -12 -4 -25 9 -6 -9 39 -36 l36 -22 7 21 c4 11 11 18 16 15 5 -4 34
11 65 31 49 33 61 48 89 108 31 69 32 73 22 146 -5 41 -11 77 -13 78 -1 2 -29
-10 -62 -28 -45 -24 -64 -41 -78 -71 -23 -47 -30 -49 -39 -9 -7 31 -11 32 -61
13 -11 -4 -57 57 -49 65 2 2 20 -8 40 -23 19 -15 38 -26 40 -23 5 4 -96 78
-107 78 -3 0 -15 -36 -27 -81z m319 -23 c-8 -8 -15 -6 -25 8 -13 16 -12 22 8
46 l22 27 3 -35 c2 -19 -2 -40 -8 -46z m-260 33 c28 -53 15 -100 -18 -67 -11
11 -18 108 -7 108 2 0 14 -18 25 -41z m230 16 c-13 -16 -40 -21 -40 -7 0 8 42
30 49 25 2 -1 -2 -9 -9 -18z m-245 -100 c23 -20 65 -103 65 -130 0 -16 -30
-35 -53 -35 -10 0 -24 28 -41 77 -24 70 -24 78 -10 86 11 6 13 12 5 16 -7 5
-9 19 -4 42 l8 34 3 -35 c2 -22 12 -42 27 -55z m225 75 c5 0 11 -8 14 -18 8
-24 -38 -146 -55 -150 -9 -1 -20 15 -30 42 -15 42 -15 45 8 91 17 33 29 45 39
41 9 -3 19 -6 24 -6z m80 -27 c0 -16 0 -35 1 -43 2 -24 -50 -130 -67 -137 -8
-3 -21 0 -27 6 -9 9 -6 29 14 84 20 57 30 73 47 75 14 2 22 10 22 23 0 10 2
19 5 19 3 0 5 -12 5 -27z m-170 -73 c18 -48 25 -79 19 -86 -6 -7 -12 -22 -14
-34 -2 -13 -7 -25 -11 -29 -4 -3 -5 1 -1 11 4 11 -1 18 -19 22 -19 5 -32 22
-50 62 -28 64 -30 96 -8 119 33 32 55 15 84 -65z m63 -95 c4 -8 2 -17 -3 -20
-6 -4 -10 -11 -10 -17 0 -6 6 -6 15 2 9 7 18 10 21 7 3 -3 -4 -10 -15 -17 -12
-6 -21 -8 -21 -4 0 4 -9 -1 -21 -12 -20 -18 -20 -18 -13 11 14 60 35 82 47 50z
m-87 -40 c4 -8 3 -27 0 -41 l-7 -27 -29 28 c-23 22 -27 32 -19 42 15 18 48 17
55 -2z"/>
<path d="M1325 2230 c-4 -6 -3 -16 3 -22 6 -6 12 -6 17 2 4 6 3 16 -3 22 -6 6
-12 6 -17 -2z"/>
<path d="M1784 2106 c-3 -8 -4 -23 -1 -33 3 -12 5 -8 6 10 0 15 5 27 10 27 13
0 98 -98 126 -145 19 -33 45 -158 45 -217 0 -5 -16 4 -36 19 -34 27 -35 30
-32 85 3 32 2 59 -2 60 -3 2 -28 33 -55 70 -27 37 -51 65 -53 63 -3 -2 19 -35
47 -73 44 -60 51 -76 51 -116 0 -45 -1 -46 -21 -35 -36 19 -191 69 -215 69
-12 0 -25 -6 -28 -12 -3 -10 -8 -8 -19 4 -13 16 -14 16 -28 0 -13 -16 -13 -20
3 -37 10 -10 18 -32 19 -49 0 -17 4 -40 9 -51 5 -13 6 0 3 33 -4 35 -2 52 5
52 19 0 60 -71 76 -130 13 -51 13 -56 -5 -76 -10 -11 -19 -30 -19 -42 0 -29
51 -37 115 -18 66 21 62 22 84 -21 37 -75 36 -79 -13 -124 -86 -79 -129 -206
-90 -269 8 -14 12 -16 7 -5 -14 35 -8 128 11 165 10 19 43 61 73 92 59 63 60
65 21 141 -11 22 -17 45 -14 53 7 18 -4 17 -27 -1 -26 -19 -113 -39 -135 -30
-13 5 2 17 62 46 57 28 83 36 96 29 20 -11 161 -154 174 -177 37 -66 -44 -295
-149 -423 -25 -30 -55 -74 -66 -97 -11 -24 -25 -45 -30 -48 -28 -18 -189 69
-189 102 0 8 18 42 40 75 22 33 40 66 40 73 0 7 -14 43 -31 80 l-32 67 5 187
c5 157 4 170 -4 81 -15 -172 -7 -285 25 -352 30 -63 29 -72 -20 -139 -18 -26
-33 -56 -33 -67 0 -25 50 -68 115 -98 75 -35 90 -32 119 24 13 26 52 83 85
127 95 125 167 325 140 391 -15 36 -30 135 -30 190 1 26 -6 50 -18 65 -12 16
-22 57 -30 124 -15 122 -26 146 -103 230 -62 67 -75 75 -84 51z m-13 -261 c95
-32 108 -39 166 -97 63 -62 84 -101 66 -119 -5 -5 -32 15 -68 51 -33 33 -67
60 -76 60 -45 0 -209 102 -209 130 0 15 7 13 121 -25z m-3 -78 l71 -35 -57
-38 c-73 -50 -72 -49 -72 -25 0 62 -72 183 -99 166 -6 -3 -11 -2 -11 4 0 5 8
14 17 19 13 8 24 2 48 -24 17 -18 64 -49 103 -67z m173 -103 c49 -48 70 -77
75 -100 11 -60 -2 -58 -71 14 -37 40 -76 74 -85 77 -9 3 -52 -11 -94 -31 -81
-37 -111 -38 -62 -1 59 45 151 106 159 107 5 0 40 -30 78 -66z"/>
<path d="M1158 2013 c-34 -36 -104 -127 -140 -180 -9 -14 -23 -64 -32 -111 -9
-47 -18 -87 -20 -90 -3 -2 -17 15 -32 38 -25 38 -27 48 -25 129 1 74 -1 92
-18 112 -11 13 -22 21 -26 17 -4 -3 -16 -53 -27 -109 l-19 -102 50 -126 c59
-149 62 -163 95 -354 14 -81 35 -165 45 -186 24 -46 164 -179 198 -187 48 -12
139 49 173 117 11 21 20 44 20 51 0 8 -33 41 -73 76 l-73 62 4 67 c2 45 -4
100 -17 160 -25 110 -27 193 -6 233 9 17 13 30 11 30 -3 0 -12 -13 -21 -30
-20 -39 -19 -127 5 -230 24 -106 26 -197 4 -228 -18 -26 -12 -41 8 -24 10 8
30 -4 81 -50 37 -33 67 -65 67 -71 0 -6 -14 -32 -31 -58 -34 -48 -103 -99
-136 -99 -25 0 -151 106 -184 156 -35 51 -45 84 -68 234 -24 146 -38 196 -97
346 l-43 111 18 97 c11 54 21 100 24 103 3 2 11 -5 17 -18 8 -15 11 -47 7 -94
-4 -55 -1 -80 11 -106 24 -48 56 -99 63 -99 3 0 14 46 23 103 9 56 23 111 30
122 38 56 163 209 174 213 29 9 8 -49 -52 -139 -60 -92 -64 -103 -86 -213 -12
-64 -20 -119 -18 -122 3 -3 15 48 27 113 21 115 24 120 89 218 l67 100 3 -44
c3 -34 -4 -58 -29 -105 -21 -42 -33 -79 -36 -121 -2 -33 -9 -71 -14 -85 -12
-34 -18 -139 -8 -145 8 -6 12 15 24 110 5 37 15 58 38 83 35 36 26 44 -11 10
l-25 -23 7 54 c4 30 21 83 37 117 30 62 42 139 24 152 -6 4 -10 13 -11 20 -1
6 -2 17 -2 22 -4 20 -29 9 -64 -27z"/>
<path d="M1277 2033 c-27 -4 -28 -6 -22 -46 5 -35 17 -52 68 -100 113 -106
122 -112 167 -98 34 10 40 16 40 39 0 21 -19 46 -82 108 -68 66 -130 111 -141
103 -1 -1 -15 -4 -30 -6z m48 -13 c3 -6 -1 -7 -9 -4 -18 7 -21 14 -7 14 6 0
13 -4 16 -10z m-5 -20 c9 -6 17 -5 21 2 5 7 38 -17 88 -62 58 -52 78 -76 69
-81 -9 -6 -35 14 -81 59 -53 53 -73 66 -93 64 -14 -2 -32 2 -42 10 -14 12 -14
10 1 -12 9 -13 17 -33 17 -44 0 -18 -2 -18 -14 -6 -12 13 -21 48 -17 73 1 10
33 9 51 -3z m93 -96 c70 -70 77 -83 52 -104 -13 -11 -26 -3 -83 47 -52 47 -68
67 -70 92 -5 50 24 39 101 -35z m107 -76 c0 -10 -7 -18 -15 -18 -8 0 -15 8
-15 18 0 10 7 19 15 19 8 0 15 -9 15 -19z"/>
<path d="M1720 1990 c0 -5 5 -10 10 -10 6 0 10 5 10 10 0 6 -4 10 -10 10 -5 0
-10 -4 -10 -10z"/>
<path d="M1630 1950 c0 -5 5 -10 10 -10 6 0 10 5 10 10 0 6 -4 10 -10 10 -5 0
-10 -4 -10 -10z"/>
<path d="M1685 1940 c-3 -5 -1 -10 4 -10 6 0 11 5 11 10 0 6 -2 10 -4 10 -3 0
-8 -4 -11 -10z"/>
<path d="M1276 1766 c3 -7 -2 -31 -11 -51 -8 -21 -13 -40 -10 -43 5 -6 24 41
32 81 3 16 1 27 -5 27 -6 0 -9 -6 -6 -14z"/>
<path d="M1393 1755 c-6 -14 -7 -25 -3 -25 5 0 11 6 14 13 5 10 7 10 12 0 3
-7 9 -13 14 -13 4 0 3 11 -3 25 -7 14 -14 25 -17 25 -3 0 -10 -11 -17 -25z"/>
<path d="M1360 1720 c8 -5 20 -10 25 -10 6 0 3 5 -5 10 -8 5 -19 10 -25 10 -5
0 -3 -5 5 -10z"/>
<path d="M1537 1713 c-10 -9 -9 -23 1 -23 5 0 9 7 9 15 0 17 -1 18 -10 8z"/>
<path d="M1611 1704 c0 -11 3 -14 6 -6 3 7 2 16 -1 19 -3 4 -6 -2 -5 -13z"/>
<path d="M1410 1695 c-7 -9 -10 -18 -7 -21 3 -3 10 4 17 15 13 25 8 27 -10 6z"/>
<path d="M1340 1620 c0 -5 5 -10 11 -10 5 0 7 5 4 10 -3 6 -8 10 -11 10 -2 0
-4 -4 -4 -10z"/>
<path d="M1492 1610 c-7 -11 -10 -20 -6 -20 7 0 34 27 34 34 0 13 -16 5 -28
-14z"/>
<path d="M1432 1598 c5 -15 28 -18 29 -3 0 6 -7 12 -17 13 -10 3 -15 -1 -12
-10z"/>
<path d="M1494 1500 c6 -19 5 -21 -3 -10 -7 10 -13 11 -19 5 -5 -6 -3 -16 7
-25 14 -13 18 -13 33 2 15 15 15 18 -4 35 -20 18 -21 18 -14 -7z"/>
<path d="M1440 1410 c0 -5 5 -10 11 -10 5 0 7 5 4 10 -3 6 -8 10 -11 10 -2 0
-4 -4 -4 -10z"/>
<path d="M380 715 c0 -37 4 -65 10 -65 6 0 10 28 10 65 0 37 -4 65 -10 65 -6
0 -10 -28 -10 -65z"/>
<path d="M550 732 c0 -72 45 -106 84 -63 13 14 16 32 13 67 l-3 49 -2 -51 c-2
-53 -14 -74 -44 -74 -25 0 -41 35 -36 81 2 21 0 39 -4 39 -5 0 -8 -22 -8 -48z"/>
<path d="M762 715 l1 -70 6 55 6 55 40 -47 c21 -27 43 -48 47 -48 4 0 8 27 8
60 0 33 -3 60 -8 60 -4 0 -6 -20 -4 -45 2 -25 0 -45 -4 -45 -5 0 -28 21 -51
47 l-42 48 1 -70z"/>
<path d="M1290 713 c0 -36 3 -63 7 -59 11 10 11 126 1 126 -4 0 -8 -30 -8 -67z"/>
<path d="M1333 770 c21 -14 22 -24 1 -44 -16 -17 -8 -21 14 -7 20 12 11 55
-13 59 -18 2 -18 2 -2 -8z"/>
<path d="M1460 720 c0 -33 4 -60 10 -60 6 0 10 24 10 54 0 49 2 55 23 59 16 3
13 5 -10 6 l-33 1 0 -60z"/>
<path d="M1637 719 c2 -80 13 -89 13 -11 0 61 0 62 28 62 15 0 33 -5 40 -12
17 -17 15 -64 -4 -82 -8 -9 -11 -16 -5 -16 14 0 41 41 41 62 0 31 -37 58 -77
58 l-38 0 2 -61z"/>
<path d="M1850 713 l5 -68 3 63 c3 54 6 62 22 62 15 0 20 -7 20 -25 0 -16 -6
-25 -15 -25 -13 0 -11 -6 7 -30 12 -16 26 -30 31 -30 6 0 2 9 -8 20 -16 18
-17 23 -5 45 17 31 0 55 -39 55 -26 0 -26 0 -21 -67z"/>
<path d="M2052 722 c-29 -76 -28 -92 2 -23 25 58 26 58 46 -6 7 -24 17 -43 22
-43 5 0 6 10 2 23 -10 30 -43 107 -46 107 -2 0 -13 -26 -26 -58z"/>
<path d="M2230 721 c0 -33 5 -63 10 -66 6 -4 10 17 10 54 0 48 3 61 15 61 23
0 31 -31 12 -45 -16 -11 -15 -14 4 -39 11 -14 25 -26 31 -26 7 0 2 10 -10 23
-16 17 -19 26 -11 34 6 6 9 21 7 34 -2 19 -10 25 -35 27 l-33 3 0 -60z"/>
<path d="M2420 721 c0 -33 5 -63 10 -66 6 -4 10 18 10 59 0 37 -4 66 -10 66
-6 0 -10 -26 -10 -59z"/>
<path d="M2567 720 c-31 -69 -31 -70 -17 -70 6 0 10 7 10 15 0 8 4 23 9 33 5
9 13 26 16 37 6 16 10 11 27 -30 21 -54 25 -61 33 -53 3 3 -8 33 -23 67 l-29
63 -26 -62z"/>
<path d="M1012 763 c9 -17 35 -79 42 -97 3 -10 9 -16 13 -13 8 9 -37 117 -49
117 -5 0 -8 -3 -6 -7z"/>
<path d="M986 699 c-9 -23 -15 -44 -12 -47 5 -5 15 17 30 66 12 38 -1 24 -18
-19z"/>
<path d="M1498 713 c7 -3 16 -2 19 1 4 3 -2 6 -13 5 -11 0 -14 -3 -6 -6z"/>
<path d="M420 660 c-8 -5 -10 -10 -5 -10 6 0 17 5 25 10 8 5 11 10 5 10 -5 0
-17 -5 -25 -10z"/>
<path d="M1510 659 c0 -5 5 -7 10 -4 6 3 10 8 10 11 0 2 -4 4 -10 4 -5 0 -10
-5 -10 -11z"/>
<path d="M1642 420 c0 -19 2 -27 5 -17 2 9 2 25 0 35 -3 9 -5 1 -5 -18z"/>
<path d="M1962 420 c0 -19 2 -27 5 -17 2 9 2 25 0 35 -3 9 -5 1 -5 -18z"/>
<path d="M2072 420 c0 -19 2 -27 5 -17 2 9 2 25 0 35 -3 9 -5 1 -5 -18z"/>
<path d="M2302 420 c0 -19 2 -27 5 -17 2 9 2 25 0 35 -3 9 -5 1 -5 -18z"/>
<path d="M492 415 c6 -14 13 -23 16 -21 7 7 -9 46 -18 46 -5 0 -4 -11 2 -25z"/>
<path d="M587 433 c-10 -9 -9 -33 1 -33 4 0 8 9 8 20 0 23 0 22 -9 13z"/>
<path d="M708 415 c2 -14 6 -25 8 -25 2 0 4 11 4 25 0 14 -4 25 -9 25 -4 0 -6
-11 -3 -25z"/>
<path d="M810 432 c0 -5 7 -15 15 -22 8 -7 15 -9 15 -6 0 4 -7 14 -15 22 -8 9
-15 11 -15 6z"/>
<path d="M910 433 c0 -6 8 -17 18 -24 16 -13 16 -13 2 6 -8 11 -16 22 -17 24
-2 2 -3 0 -3 -6z"/>
<path d="M1004 429 c-3 -6 -2 -15 3 -20 5 -5 9 -1 9 11 0 23 -2 24 -12 9z"/>
<path d="M1051 424 c0 -11 3 -14 6 -6 3 7 2 16 -1 19 -3 4 -6 -2 -5 -13z"/>
<path d="M1157 425 c-4 -8 -3 -16 1 -19 4 -3 9 4 9 15 2 23 -3 25 -10 4z"/>
<path d="M1252 415 c0 -16 2 -22 5 -12 2 9 2 23 0 30 -3 6 -5 -1 -5 -18z"/>
<path d="M1376 427 c3 -10 9 -15 12 -12 3 3 0 11 -7 18 -10 9 -11 8 -5 -6z"/>
<path d="M1460 433 c0 -6 8 -17 18 -24 16 -13 16 -13 2 6 -8 11 -16 22 -17 24
-2 2 -3 0 -3 -6z"/>
<path d="M1750 431 c0 -5 7 -15 17 -22 15 -13 15 -12 4 9 -12 23 -21 28 -21
13z"/>
<path d="M1790 415 c0 -14 4 -25 9 -25 4 0 6 11 3 25 -2 14 -6 25 -8 25 -2 0
-4 -11 -4 -25z"/>
<path d="M2213 421 c0 -11 5 -18 9 -15 4 3 5 11 1 19 -7 21 -12 19 -10 -4z"/>
<path d="M2322 420 c0 -14 2 -19 5 -12 2 6 2 18 0 25 -3 6 -5 1 -5 -13z"/>
<path d="M2432 415 c6 -14 13 -24 14 -22 6 6 -9 47 -17 47 -5 0 -3 -11 3 -25z"/>
<path d="M2531 423 c7 -12 15 -20 18 -17 3 2 -3 12 -13 22 -17 16 -18 16 -5
-5z"/>
<path d="M1330 415 c0 -8 4 -15 10 -15 5 0 7 7 4 15 -4 8 -8 15 -10 15 -2 0
-4 -7 -4 -15z"/>
<path d="M1060 347 c0 -10 41 -49 46 -45 2 3 -7 15 -21 28 -14 13 -25 20 -25
17z"/>
<path d="M1197 329 c-3 -12 -3 -18 0 -15 3 3 12 -2 19 -12 12 -14 12 -12 3 16
-13 38 -15 39 -22 11z"/>
<path d="M1318 325 c-3 -14 -1 -28 3 -31 5 -3 9 9 9 25 0 38 -6 40 -12 6z"/>
<path d="M1772 320 c0 -19 2 -27 5 -17 2 9 2 25 0 35 -3 9 -5 1 -5 -18z"/>
<path d="M1542 315 c0 -16 2 -22 5 -12 2 9 2 23 0 30 -3 6 -5 -1 -5 -18z"/>
<path d="M1560 321 c0 -11 4 -22 9 -25 4 -3 6 6 3 19 -5 30 -12 33 -12 6z"/>
<path d="M1666 331 c-4 -6 -2 -11 3 -11 6 0 11 -8 12 -17 0 -10 3 -13 5 -6 8
18 -11 49 -20 34z"/>
<path d="M1861 323 c7 -12 15 -20 18 -17 3 2 -3 12 -13 22 -17 16 -18 16 -5
-5z"/>
</g>
</svg>
